# xmcd
#
# Track frame offsets: 
#        150
#        15592
#        34275
#        55737
#        76040
#        97960
#        117902
#        134195
#        152158
#        171799
#        190723
#        209045
#
# Disc length: 3010 seconds
#
# Revision: 0
# Processed by: cddbd v1.5.2PL0 Copyright (c) Steve Scherf et al.
# Submitted via: ExactAudioCopy v0.99pb4
#
DISCID=9e0bc00c
DTITLE=Jimmy Warren Band - No More Promises
DYEAR=2010
DGENRE=Rock
TTITLE0=Watermelon Money
TTITLE1=Mean Mistreater
TTITLE2=I'm Gonna Love You
TTITLE3=A Darker Shade of Grey
TTITLE4=It Aint Fair - (Featuring Bob Margolin)
TTITLE5=Standing In My Shoes
TTITLE6=No More Promises
TTITLE7=Loves Gone Bad Again
TTITLE8=It's Been To Long
TTITLE9=A Love That Hurts
TTITLE10=A Matter of Time
TTITLE11=Sends Me On My Way
EXTD=
EXTT0=
EXTT1=
EXTT2=
EXTT3=
EXTT4=
EXTT5=
EXTT6=
EXTT7=
EXTT8=
EXTT9=
EXTT10=
EXTT11=
PLAYORDER=
